<svg width="200" height="200" viewBox="0 0 200 200" fill="none" xmlns="http://www.w3.org/2000/svg">
<path d="M160 0H40C17.9086 0 0 17.9086 0 40V160C0 182.091 17.9086 200 40 200H160C182.091 200 200 182.091 200 160V40C200 17.9086 182.091 0 160 0Z" fill="#1A1A1A"/>
<path d="M28 165V155" stroke="#444444" stroke-width="1.5"/>
<path d="M48 165V160" stroke="#444444" stroke-width="1.5"/>
<path d="M68 165V155" stroke="#444444" stroke-width="1.5"/>
<path d="M88 165V160" stroke="#444444" stroke-width="1.5"/>
<path d="M108 165V155" stroke="#444444" stroke-width="1.5"/>
<path d="M128 165V160" stroke="#444444" stroke-width="1.5"/>
<path d="M148 165V155" stroke="#444444" stroke-width="1.5"/>
<path d="M168 165V160" stroke="#444444" stroke-width="1.5"/>
<path d="M188 165V155" stroke="#444444" stroke-width="1.5"/>
<path d="M28 165H192" stroke="#333333"/>
<path d="M32 148L178 52" stroke="#E63946" stroke-width="3" stroke-linecap="round"/>
<path d="M32 152C34.2091 152 36 150.209 36 148C36 145.791 34.2091 144 32 144C29.7909 144 28 145.791 28 148C28 150.209 29.7909 152 32 152Z" fill="#E63946"/>
<path d="M178 56C180.209 56 182 54.2091 182 52C182 49.7909 180.209 48 178 48C175.791 48 174 49.7909 174 52C174 54.2091 175.791 56 178 56Z" fill="#E63946"/>
<path d="M142 80H82C78.6863 80 76 82.6863 76 86V96C76 99.3137 78.6863 102 82 102H142C145.314 102 148 99.3137 148 96V86C148 82.6863 145.314 80 142 80Z" fill="#E63946"/>
<path d="M94.7466 87V95H93.0552V88.6055H93.0083L91.1763 89.7539V88.2539L93.1567 87H94.7466ZM96.6479 95V93.7812L99.4956 91.1445C99.7378 90.9102 99.9409 90.6992 100.105 90.5117C100.272 90.3242 100.398 90.1406 100.484 89.9609C100.57 89.7786 100.613 89.582 100.613 89.3711C100.613 89.1367 100.559 88.9349 100.453 88.7656C100.346 88.5937 100.2 88.4622 100.015 88.3711C99.8302 88.2773 99.6206 88.2305 99.3862 88.2305C99.1414 88.2305 98.9279 88.2799 98.7456 88.3789C98.5633 88.4779 98.4227 88.6198 98.3237 88.8047C98.2248 88.9896 98.1753 89.2096 98.1753 89.4648H96.5698C96.5698 88.9414 96.6883 88.487 96.9253 88.1016C97.1623 87.7161 97.4943 87.418 97.9214 87.207C98.3485 86.9961 98.8407 86.8906 99.3979 86.8906C99.9709 86.8906 100.47 86.9922 100.894 87.1953C101.321 87.3958 101.653 87.6745 101.89 88.0312C102.127 88.388 102.246 88.7969 102.246 89.2578C102.246 89.5599 102.186 89.8581 102.066 90.1523C101.949 90.4466 101.739 90.7734 101.437 91.1328C101.135 91.4896 100.709 91.918 100.16 92.418L98.9917 93.5625V93.6172H102.351V95H96.6479ZM104.565 95.1016C104.307 95.1016 104.086 95.0104 103.901 94.8281C103.719 94.6432 103.627 94.4219 103.627 94.1641C103.627 93.9089 103.719 93.6901 103.901 93.5078C104.086 93.3255 104.307 93.2344 104.565 93.2344C104.815 93.2344 105.034 93.3255 105.221 93.5078C105.409 93.6901 105.502 93.9089 105.502 94.1641C105.502 94.3359 105.458 94.4935 105.37 94.6367C105.284 94.7773 105.17 94.8906 105.03 94.9766C104.889 95.0599 104.734 95.1016 104.565 95.1016ZM109.71 95.1094C109.158 95.1094 108.666 95.0078 108.234 94.8047C107.804 94.6016 107.463 94.3216 107.21 93.9648C106.958 93.6081 106.826 93.1992 106.816 92.7383H108.457C108.475 93.0482 108.605 93.2995 108.847 93.4922C109.089 93.6849 109.377 93.7812 109.71 93.7812C109.976 93.7812 110.21 93.7227 110.414 93.6055C110.619 93.4857 110.779 93.3203 110.894 93.1094C111.011 92.8958 111.07 92.651 111.07 92.375C111.07 92.0937 111.01 91.8464 110.89 91.6328C110.773 91.4193 110.61 91.2526 110.402 91.1328C110.194 91.013 109.955 90.9518 109.687 90.9492C109.453 90.9492 109.225 90.9974 109.003 91.0937C108.785 91.1901 108.614 91.3216 108.492 91.4883L106.988 91.2188L107.367 87H112.257V88.3828H108.761L108.554 90.3867H108.601C108.742 90.1888 108.954 90.0247 109.238 89.8945C109.522 89.7643 109.839 89.6992 110.191 89.6992C110.673 89.6992 111.102 89.8125 111.48 90.0391C111.858 90.2656 112.156 90.5768 112.375 90.9727C112.593 91.3659 112.701 91.819 112.699 92.332C112.701 92.8711 112.576 93.3503 112.324 93.7695C112.074 94.1862 111.723 94.5143 111.273 94.7539C110.825 94.9909 110.304 95.1094 109.71 95.1094ZM117.015 95.1758C116.343 95.1732 115.765 95.0078 115.281 94.6797C114.799 94.3516 114.428 93.8763 114.167 93.2539C113.91 92.6315 113.782 91.8828 113.785 91.0078C113.785 90.1354 113.914 89.3919 114.171 88.7773C114.432 88.1628 114.803 87.6953 115.285 87.375C115.769 87.0521 116.346 86.8906 117.015 86.8906C117.684 86.8906 118.26 87.0521 118.742 87.375C119.226 87.6979 119.598 88.1667 119.859 88.7812C120.119 89.3932 120.248 90.1354 120.246 91.0078C120.246 91.8854 120.115 92.6354 119.855 93.2578C119.597 93.8802 119.227 94.3555 118.746 94.6836C118.264 95.0117 117.687 95.1758 117.015 95.1758ZM117.015 93.7734C117.473 93.7734 117.839 93.543 118.113 93.082C118.386 92.6211 118.522 91.9297 118.519 91.0078C118.519 90.401 118.457 89.8958 118.332 89.4922C118.209 89.0885 118.035 88.7852 117.808 88.582C117.584 88.3789 117.32 88.2773 117.015 88.2773C116.559 88.2773 116.195 88.5052 115.921 88.9609C115.648 89.4167 115.51 90.099 115.507 91.0078C115.507 91.6224 115.569 92.1354 115.691 92.5469C115.816 92.9557 115.992 93.263 116.218 93.4687C116.445 93.6719 116.71 93.7734 117.015 93.7734ZM124.013 95V89H125.599V90.0586H125.669C125.794 89.707 126.003 89.4297 126.294 89.2266C126.586 89.0234 126.935 88.9219 127.341 88.9219C127.753 88.9219 128.103 89.0247 128.392 89.2305C128.681 89.4336 128.874 89.7096 128.97 90.0586H129.033C129.155 89.7148 129.376 89.4401 129.697 89.2344C130.02 89.026 130.401 88.9219 130.841 88.9219C131.401 88.9219 131.856 89.1003 132.205 89.457C132.556 89.8112 132.732 90.3138 132.732 90.9648V95H131.072V91.293C131.072 90.9596 130.983 90.7096 130.806 90.543C130.629 90.3763 130.408 90.293 130.142 90.293C129.84 90.293 129.604 90.3893 129.435 90.582C129.266 90.7721 129.181 91.0234 129.181 91.3359V95H127.568V91.2578C127.568 90.9635 127.483 90.7292 127.314 90.5547C127.147 90.3802 126.927 90.293 126.654 90.293C126.469 90.293 126.302 90.3398 126.154 90.4336C126.008 90.5247 125.892 90.6536 125.806 90.8203C125.72 90.9844 125.677 91.1771 125.677 91.3984V95H124.013Z" fill="white"/>
<path opacity="0.5" d="M24 154L40 142" stroke="#E63946" stroke-width="1.5"/>
<path opacity="0.5" d="M170 58L186 46" stroke="#E63946" stroke-width="1.5"/>
</svg>
